<svg xmlns="http://www.w3.org/2000/svg" xmlns:xlink="http://www.w3.org/1999/xlink" width="130" zoomAndPan="magnify" viewBox="0 0 97.5 37.5" height="50" preserveAspectRatio="xMidYMid meet" version="1.0"><defs><g/><clipPath id="09f9de5cf0"><path d="M 5 9 L 25.558594 9 L 25.558594 13 L 5 13 Z M 5 9 " clip-rule="nonzero"/></clipPath><clipPath id="219fcb61d2"><path d="M 9 1.273438 L 25.558594 1.273438 L 25.558594 5 L 9 5 Z M 9 1.273438 " clip-rule="nonzero"/></clipPath><clipPath id="afd375ee30"><path d="M 17 5 L 25.558594 5 L 25.558594 9 L 17 9 Z M 17 5 " clip-rule="nonzero"/></clipPath><clipPath id="77a988f024"><path d="M 0.394531 9 L 4 9 L 4 13 L 0.394531 13 Z M 0.394531 9 " clip-rule="nonzero"/></clipPath><clipPath id="16926971a3"><path d="M 9 13 L 25.558594 13 L 25.558594 17 L 9 17 Z M 9 13 " clip-rule="nonzero"/></clipPath><clipPath id="43ed5827a9"><path d="M 11 16 L 25.558594 16 L 25.558594 20 L 11 20 Z M 11 16 " clip-rule="nonzero"/></clipPath></defs><g clip-path="url(#09f9de5cf0)"><path fill="#ff4081" d="M 33.871094 9.320312 L 17.851562 9.320312 L 17.167969 10.503906 L 15.585938 10.503906 L 14.902344 9.320312 C 14.3125 9.320312 6.921875 9.320312 6.332031 9.320312 L 5.445312 10.851562 L 6.332031 12.382812 C 6.921875 12.382812 14.3125 12.382812 14.902344 12.382812 L 15.585938 11.203125 L 17.167969 11.203125 L 17.851562 12.382812 L 33.871094 12.382812 C 34.046875 11.371094 34.046875 10.335938 33.871094 9.320312 Z M 33.871094 9.320312 " fill-opacity="1" fill-rule="nonzero"/></g><g clip-path="url(#219fcb61d2)"><path fill="#ff4081" d="M 11.878906 4.851562 L 12.5625 3.667969 L 14.148438 3.667969 L 14.832031 4.851562 L 31.71875 4.851562 C 28.546875 1.273438 24.984375 1.785156 20.691406 1.785156 L 14.832031 1.785156 L 14.148438 2.964844 L 12.5625 2.964844 L 11.878906 1.785156 L 10.109375 1.785156 L 9.226562 3.316406 L 10.109375 4.847656 L 11.878906 4.847656 Z M 11.878906 4.851562 " fill-opacity="1" fill-rule="nonzero"/></g><g clip-path="url(#afd375ee30)"><path fill="#ff4081" d="M 22.460938 6.734375 L 20.875 6.734375 L 20.191406 5.554688 L 18.421875 5.554688 L 17.539062 7.085938 L 18.421875 8.617188 L 20.191406 8.617188 L 20.875 7.433594 L 22.460938 7.433594 L 23.144531 8.617188 L 33.722656 8.617188 C 33.4375 7.5 32.941406 6.460938 32.28125 5.550781 L 23.144531 5.550781 Z M 22.460938 6.734375 " fill-opacity="1" fill-rule="nonzero"/></g><g clip-path="url(#77a988f024)"><path fill="#ff4081" d="M 1.28125 9.320312 L 0.394531 10.851562 L 1.28125 12.386719 L 3.050781 12.386719 L 3.9375 10.851562 L 3.050781 9.320312 Z M 1.28125 9.320312 " fill-opacity="1" fill-rule="nonzero"/></g><path fill="#ff4081" d="M 12.484375 7.085938 L 13.371094 8.617188 L 15.140625 8.617188 L 16.027344 7.085938 L 15.140625 5.554688 L 13.371094 5.554688 Z M 12.484375 7.085938 " fill-opacity="1" fill-rule="nonzero"/><path fill="#ff4081" d="M 7.324219 16.851562 L 6.4375 18.386719 L 7.324219 19.921875 L 9.09375 19.921875 L 9.980469 18.386719 L 9.09375 16.851562 Z M 7.324219 16.851562 " fill-opacity="1" fill-rule="nonzero"/><g clip-path="url(#16926971a3)"><path fill="#ff4081" d="M 14.902344 14.269531 L 13.316406 14.269531 L 12.632812 13.085938 L 10.863281 13.085938 L 9.980469 14.617188 L 10.863281 16.152344 L 12.632812 16.152344 L 13.316406 14.96875 L 14.902344 14.96875 L 15.585938 16.152344 L 32.277344 16.152344 C 32.9375 15.238281 33.433594 14.203125 33.71875 13.082031 C 28.175781 13.082031 21.125 13.082031 15.582031 13.082031 Z M 14.902344 14.269531 " fill-opacity="1" fill-rule="nonzero"/></g><g clip-path="url(#43ed5827a9)"><path fill="#ff4081" d="M 19.4375 18.039062 L 17.851562 18.039062 L 17.167969 16.855469 C 15.574219 16.855469 13.972656 16.855469 12.375 16.855469 L 11.492188 18.386719 L 12.375 19.921875 C 13.972656 19.921875 15.570312 19.921875 17.167969 19.921875 L 17.851562 18.738281 L 19.4375 18.738281 L 20.121094 19.921875 C 24.652344 19.921875 28.464844 20.527344 31.71875 16.851562 L 20.121094 16.851562 Z M 19.4375 18.039062 " fill-opacity="1" fill-rule="nonzero"/></g><path stroke-linecap="round" transform="matrix(0, 0.740132, -0.740132, 0, 26.488772, 0.000718831)" fill="none" stroke-linejoin="miter" d="M 1.497918 1.499552 L 27.955419 1.499552 " stroke="#ff4081" stroke-width="3" stroke-opacity="1" stroke-miterlimit="4"/><g fill="#ffffff" fill-opacity="1"><g transform="translate(31.416598, 11.709085)"><g><path d="M 4.21875 0 L 0.328125 0 L 0.328125 -1.515625 L 1.296875 -1.515625 L 1.296875 -6.0625 L 0.328125 -6.0625 L 0.328125 -7.578125 L 4.21875 -7.578125 L 4.21875 -6.0625 L 3.25 -6.0625 L 3.25 -1.515625 L 4.21875 -1.515625 Z M 4.21875 0 "/></g></g></g><g fill="#ffffff" fill-opacity="1"><g transform="translate(38.127603, 11.709085)"><g><path d="M 7.25 0 L 5.203125 0 L 2.59375 -4.546875 L 2.59375 0 L 0.65625 0 L 0.65625 -7.578125 L 2.703125 -7.578125 L 5.3125 -3.03125 L 5.3125 -7.578125 L 7.25 -7.578125 Z M 7.25 0 "/></g></g></g><g fill="#ffffff" fill-opacity="1"><g transform="translate(48.193971, 11.709085)"><g><path d="M 3.84375 -2.28125 L 5.6875 -7.578125 L 7.796875 -7.578125 L 4.921875 0 L 2.765625 0 L -0.109375 -7.578125 L 2 -7.578125 Z M 3.84375 -2.28125 "/></g></g></g><g fill="#ffffff" fill-opacity="1"><g transform="translate(58.043864, 11.709085)"><g><path d="M 5.515625 -5.515625 C 5.515625 -5.953125 5.300781 -6.171875 4.875 -6.171875 L 3.03125 -6.171875 C 2.59375 -6.171875 2.375 -5.953125 2.375 -5.515625 L 2.375 -2.0625 C 2.375 -1.625 2.59375 -1.40625 3.03125 -1.40625 L 4.875 -1.40625 C 5.300781 -1.40625 5.515625 -1.625 5.515625 -2.0625 Z M 7.46875 -2.0625 C 7.46875 -1.300781 7.296875 -0.75 6.953125 -0.40625 C 6.609375 -0.0625 6.0625 0.109375 5.3125 0.109375 L 2.59375 0.109375 C 1.84375 0.109375 1.296875 -0.0625 0.953125 -0.40625 C 0.609375 -0.75 0.4375 -1.300781 0.4375 -2.0625 L 0.4375 -5.515625 C 0.4375 -6.273438 0.609375 -6.828125 0.953125 -7.171875 C 1.296875 -7.515625 1.84375 -7.6875 2.59375 -7.6875 L 5.3125 -7.6875 C 6.0625 -7.6875 6.609375 -7.515625 6.953125 -7.171875 C 7.296875 -6.828125 7.46875 -6.273438 7.46875 -5.515625 Z M 7.46875 -2.0625 "/></g></g></g><g fill="#ffffff" fill-opacity="1"><g transform="translate(68.110231, 11.709085)"><g><path d="M 4.21875 0 L 0.328125 0 L 0.328125 -1.515625 L 1.296875 -1.515625 L 1.296875 -6.0625 L 0.328125 -6.0625 L 0.328125 -7.578125 L 4.21875 -7.578125 L 4.21875 -6.0625 L 3.25 -6.0625 L 3.25 -1.515625 L 4.21875 -1.515625 Z M 4.21875 0 "/></g></g></g><g fill="#ffffff" fill-opacity="1"><g transform="translate(74.821236, 11.709085)"><g><path d="M 6.5 -0.109375 C 4.882812 0.0351562 3.546875 0.109375 2.484375 0.109375 C 1.773438 0.109375 1.253906 -0.0546875 0.921875 -0.390625 C 0.597656 -0.722656 0.4375 -1.242188 0.4375 -1.953125 L 0.4375 -5.40625 C 0.4375 -6.164062 0.609375 -6.71875 0.953125 -7.0625 C 1.296875 -7.40625 1.84375 -7.578125 2.59375 -7.578125 L 6.5 -7.578125 L 6.5 -6.0625 L 3.03125 -6.0625 C 2.59375 -6.0625 2.375 -5.84375 2.375 -5.40625 L 2.375 -1.953125 C 2.375 -1.785156 2.421875 -1.648438 2.515625 -1.546875 C 2.617188 -1.453125 2.742188 -1.40625 2.890625 -1.40625 C 3.046875 -1.40625 3.210938 -1.40625 3.390625 -1.40625 C 3.578125 -1.414062 3.765625 -1.421875 3.953125 -1.421875 C 4.148438 -1.429688 4.347656 -1.441406 4.546875 -1.453125 C 4.742188 -1.460938 5 -1.476562 5.3125 -1.5 C 5.632812 -1.519531 6.03125 -1.539062 6.5 -1.5625 Z M 6.5 -0.109375 "/></g></g></g><g fill="#ffffff" fill-opacity="1"><g transform="translate(83.69699, 11.709085)"><g><path d="M 6.65625 0 L 0.65625 0 L 0.65625 -7.578125 L 6.65625 -7.578125 L 6.65625 -6.0625 L 2.59375 -6.0625 L 2.59375 -4.609375 L 5.796875 -4.609375 L 5.796875 -3.09375 L 2.59375 -3.09375 L 2.59375 -1.515625 L 6.65625 -1.515625 Z M 6.65625 0 "/></g></g></g><g fill="#ffffff" fill-opacity="1"><g transform="translate(35.013228, 18.488347)"><g><path d="M 3.234375 -0.078125 C 2.472656 0.00390625 1.769531 0.046875 1.125 0.046875 C 0.800781 0.046875 0.566406 -0.0234375 0.421875 -0.171875 C 0.273438 -0.328125 0.203125 -0.566406 0.203125 -0.890625 L 0.203125 -2.453125 C 0.203125 -2.796875 0.273438 -3.046875 0.421875 -3.203125 C 0.578125 -3.359375 0.828125 -3.4375 1.171875 -3.4375 L 2.9375 -3.4375 L 2.9375 -2.75 L 1.375 -2.75 C 1.175781 -2.75 1.078125 -2.648438 1.078125 -2.453125 L 1.078125 -0.890625 C 1.078125 -0.804688 1.097656 -0.742188 1.140625 -0.703125 C 1.191406 -0.660156 1.253906 -0.640625 1.328125 -0.640625 C 1.703125 -0.640625 2.046875 -0.644531 2.359375 -0.65625 L 2.359375 -1.375 L 1.71875 -1.375 L 1.71875 -1.96875 L 3.234375 -1.96875 Z M 3.234375 -0.078125 "/></g></g></g><g fill="#ffffff" fill-opacity="1"><g transform="translate(41.139631, 18.488347)"><g><path d="M 3.015625 0 L 0.296875 0 L 0.296875 -3.4375 L 3.015625 -3.4375 L 3.015625 -2.75 L 1.171875 -2.75 L 1.171875 -2.078125 L 2.625 -2.078125 L 2.625 -1.390625 L 1.171875 -1.390625 L 1.171875 -0.6875 L 3.015625 -0.6875 Z M 3.015625 0 "/></g></g></g><g fill="#ffffff" fill-opacity="1"><g transform="translate(46.946998, 18.488347)"><g><path d="M 3.28125 0 L 2.359375 0 L 1.171875 -2.0625 L 1.171875 0 L 0.296875 0 L 0.296875 -3.4375 L 1.21875 -3.4375 L 2.40625 -1.375 L 2.40625 -3.4375 L 3.28125 -3.4375 Z M 3.28125 0 "/></g></g></g><g fill="#ffffff" fill-opacity="1"><g transform="translate(53.220648, 18.488347)"><g><path d="M 3.015625 0 L 0.296875 0 L 0.296875 -3.4375 L 3.015625 -3.4375 L 3.015625 -2.75 L 1.171875 -2.75 L 1.171875 -2.078125 L 2.625 -2.078125 L 2.625 -1.390625 L 1.171875 -1.390625 L 1.171875 -0.6875 L 3.015625 -0.6875 Z M 3.015625 0 "/></g></g></g><g fill="#ffffff" fill-opacity="1"><g transform="translate(59.028015, 18.488347)"><g><path d="M 0.296875 -3.4375 L 2.359375 -3.4375 C 2.703125 -3.4375 2.953125 -3.359375 3.109375 -3.203125 C 3.265625 -3.046875 3.34375 -2.796875 3.34375 -2.453125 L 3.34375 -2.015625 C 3.34375 -1.742188 3.296875 -1.53125 3.203125 -1.375 C 3.109375 -1.226562 2.960938 -1.128906 2.765625 -1.078125 L 3.390625 0 L 2.421875 0 L 1.859375 -1.03125 L 1.171875 -1.03125 L 1.171875 0 L 0.296875 0 Z M 2.453125 -2.453125 C 2.453125 -2.648438 2.351562 -2.75 2.15625 -2.75 L 1.171875 -2.75 L 1.171875 -1.71875 L 2.15625 -1.71875 C 2.351562 -1.71875 2.453125 -1.816406 2.453125 -2.015625 Z M 2.453125 -2.453125 "/></g></g></g><g fill="#ffffff" fill-opacity="1"><g transform="translate(65.252585, 18.488347)"><g><path d="M 0.90625 0 L -0.046875 0 L 1.25 -3.4375 L 2.234375 -3.4375 L 3.53125 0 L 2.578125 0 L 2.359375 -0.609375 L 1.125 -0.609375 Z M 1.34375 -1.25 L 2.140625 -1.25 L 1.734375 -2.40625 Z M 1.34375 -1.25 "/></g></g></g><g fill="#ffffff" fill-opacity="1"><g transform="translate(71.428072, 18.488347)"><g><path d="M 1.96875 0 L 1.078125 0 L 1.078125 -2.75 L 0.046875 -2.75 L 0.046875 -3.4375 L 3 -3.4375 L 3 -2.75 L 1.96875 -2.75 Z M 1.96875 0 "/></g></g></g><g fill="#ffffff" fill-opacity="1"><g transform="translate(77.161817, 18.488347)"><g><path d="M 2.5 -2.5 C 2.5 -2.695312 2.398438 -2.796875 2.203125 -2.796875 L 1.375 -2.796875 C 1.175781 -2.796875 1.078125 -2.695312 1.078125 -2.5 L 1.078125 -0.9375 C 1.078125 -0.738281 1.175781 -0.640625 1.375 -0.640625 L 2.203125 -0.640625 C 2.398438 -0.640625 2.5 -0.738281 2.5 -0.9375 Z M 3.390625 -0.9375 C 3.390625 -0.59375 3.3125 -0.34375 3.15625 -0.1875 C 3 -0.03125 2.75 0.046875 2.40625 0.046875 L 1.171875 0.046875 C 0.828125 0.046875 0.578125 -0.03125 0.421875 -0.1875 C 0.273438 -0.34375 0.203125 -0.59375 0.203125 -0.9375 L 0.203125 -2.5 C 0.203125 -2.84375 0.273438 -3.09375 0.421875 -3.25 C 0.578125 -3.40625 0.828125 -3.484375 1.171875 -3.484375 L 2.40625 -3.484375 C 2.75 -3.484375 3 -3.40625 3.15625 -3.25 C 3.3125 -3.09375 3.390625 -2.84375 3.390625 -2.5 Z M 3.390625 -0.9375 "/></g></g></g><g fill="#ffffff" fill-opacity="1"><g transform="translate(83.435467, 18.488347)"><g><path d="M 0.296875 -3.4375 L 2.359375 -3.4375 C 2.703125 -3.4375 2.953125 -3.359375 3.109375 -3.203125 C 3.265625 -3.046875 3.34375 -2.796875 3.34375 -2.453125 L 3.34375 -2.015625 C 3.34375 -1.742188 3.296875 -1.53125 3.203125 -1.375 C 3.109375 -1.226562 2.960938 -1.128906 2.765625 -1.078125 L 3.390625 0 L 2.421875 0 L 1.859375 -1.03125 L 1.171875 -1.03125 L 1.171875 0 L 0.296875 0 Z M 2.453125 -2.453125 C 2.453125 -2.648438 2.351562 -2.75 2.15625 -2.75 L 1.171875 -2.75 L 1.171875 -1.71875 L 2.15625 -1.71875 C 2.351562 -1.71875 2.453125 -1.816406 2.453125 -2.015625 Z M 2.453125 -2.453125 "/></g></g></g></svg>